#N canvas 0 27 1600 817 12;
#X declare -lib else;
#X obj 349 264 t f f;
#X obj 354 192 metro 5;
#X obj 353 161 tgl 20 0 empty empty empty 0 -10 0 12 #fcfcfc #000000 #000000 0 1;
#X msg 1121 134 0 274 472 731 1209 1467 1698 1919 2181 2430;
#X msg 1127 164 0 240 463 696 912 1209 1402 1644 1925 2112 2415;
#X msg 1128 198 0 284 529 763 1015 1205 1427 1706 1963 2204 2410 2647;
#X msg 1134 239 0 249 475 706 923 1200 1418 1666 1906 2157 2435 2613 2861 3106, f 62;
#X msg 1142 276 0 274 488 751 979 1210 1448 1681 1918 2162 2395 2665;
#X msg 1177 327 0 196 377 506 676 877 1050 1148;
#X msg 1170 370 0 185 389 593 756 914 1051 1302;
#X obj 352 130 lb;
#X obj 1097 82 sel 0 1 2 3 4 5 6;
#X msg 1035 123 Embaire_1;
#X obj 1068 441 insert symbol;
#X msg 1040 163 Embaire_2;
#X msg 1050 199 Embaire_3;
#X msg 1057 238 Embaire_4;
#X msg 1062 279 Embaire_5;
#X msg 1080 322 Mbira_1;
#X msg 1085 364 Mbira_2;
#X symbolatom 1080 479 20 0 0 0 - - - 0;
#N canvas 0 27 1600 817 tuning 0;
#X obj 691 35 inlet;
#X obj 707 367 * 100;
#X obj 677 272 t b b b;
#X msg 707 514 append \$1;
#X obj 660 574 list store;
#X obj 678 143 sort;
#X obj 678 196 t b a b;
#X obj 698 300 loop 16;
#X obj 660 634 array set Tuning_\$0;
#X obj 698 333 retune -base 0;
#X obj 707 411 expr if($f1 > 4800 \, 0 \, $f1 / 4800);
#X msg 758 197 const 8192;
#X obj 707 436 * 8191;
#X obj 758 233 array define -yrange 0 8191 Tuning_\$0 16;
#X connect 0 0 5 0;
#X connect 1 0 10 0;
#X connect 2 0 4 0;
#X connect 2 1 7 0;
#X connect 2 2 4 1;
#X connect 3 0 4 0;
#X connect 4 0 8 0;
#X connect 5 0 6 0;
#X connect 6 0 2 0;
#X connect 6 1 9 1;
#X connect 6 2 11 0;
#X connect 7 0 9 0;
#X connect 9 0 1 0;
#X connect 10 0 12 0;
#X connect 11 0 13 0;
#X connect 12 0 3 0;
#X restore 1279 441 pd tuning;
#X obj 1355 39 declare -lib else;
#X obj 152 143 notein 1;
#X obj 353 230 loop 16;
#X obj 153 199 % 16;
#X obj 153 224 + 1;
#X obj 153 170 - 12;
#X obj 1097 53 hradio 20 1 0 7 empty empty empty 0 -10 0 12 #fcfcfc #000000 #000000 0;
#X obj 377 458 bendout;
#X obj 540 328 + 1;
#X obj 348 326 array get Tuning_\$0 0 1;
#X obj 146 478 noteout;
#X obj 171 361 pack 60 f f;
#X obj 153 249 t b f;
#X text 631 280 Vital : pb range to 48;
#X text 640 333 Surge : activate MPE;
#X text 710 427 pb range to 48;
#X text 632 405 Cardinal : left click on Host Midi \, set:;
#X text 710 454 MIDI channel to All;
#X text 710 479 Polyphony channels to 16;
#X text 709 505 Polyphony mode to MPE;
#X text 131 107 FROM C4 TO D#5/Eb5;
#X msg 737 78 0;
#X text 633 529 PROBLEM : note offs on all channels;
#X connect 0 0 31 0;
#X connect 0 1 30 0;
#X connect 1 0 24 0;
#X connect 2 0 1 0;
#X connect 3 0 21 0;
#X connect 4 0 21 0;
#X connect 5 0 21 0;
#X connect 6 0 21 0;
#X connect 7 0 21 0;
#X connect 8 0 21 0;
#X connect 9 0 21 0;
#X connect 10 0 2 0;
#X connect 10 0 43 0;
#X connect 11 0 3 0;
#X connect 11 0 12 0;
#X connect 11 1 4 0;
#X connect 11 1 14 0;
#X connect 11 2 5 0;
#X connect 11 2 15 0;
#X connect 11 3 6 0;
#X connect 11 3 16 0;
#X connect 11 4 7 0;
#X connect 11 4 17 0;
#X connect 11 5 8 0;
#X connect 11 5 18 0;
#X connect 11 6 9 0;
#X connect 11 6 19 0;
#X connect 12 0 13 0;
#X connect 13 0 20 0;
#X connect 14 0 13 0;
#X connect 15 0 13 0;
#X connect 16 0 13 0;
#X connect 17 0 13 0;
#X connect 18 0 13 0;
#X connect 19 0 13 0;
#X connect 23 0 27 0;
#X connect 23 1 33 1;
#X connect 24 0 0 0;
#X connect 25 0 26 0;
#X connect 26 0 34 0;
#X connect 27 0 25 0;
#X connect 28 0 11 0;
#X connect 30 0 29 1;
#X connect 31 0 29 0;
#X connect 33 0 32 0;
#X connect 34 0 33 0;
#X connect 34 1 33 2;
#X connect 43 0 28 0;
